<svg viewBox="0 0 57 56" fill="none" xmlns="http://www.w3.org/2000/svg">
  <path
    d="M56.0596 28C56.0596 43.464 43.5235 56 28.0596 56C12.5956 56 0.0595703 43.464 0.0595703 28C0.0595703 12.536 12.5956 0 28.0596 0C43.5235 0 56.0596 12.536 56.0596 28Z"
    fill="#838383" />
  <path fill-rule="evenodd" clip-rule="evenodd"
    d="M7.59766 47.1462C9.52505 38.5312 17.9542 32.0449 28.0607 32.0449C38.1631 32.0449 46.5895 38.526 48.5213 47.1359C47.9701 47.7236 47.3938 48.2876 46.7941 48.8261C45.6552 40.6358 37.8665 34.0449 28.0607 34.0449C18.251 34.0449 10.46 40.6409 9.32586 48.8357C8.72584 48.2974 8.1492 47.7337 7.59766 47.1462Z"
    fill="#D9D9D9" />
  <path fill-rule="evenodd" clip-rule="evenodd"
    d="M28.0595 26.3137C32.2388 26.3137 35.6219 22.9314 35.6219 18.7653C35.6219 14.5991 32.2388 11.2168 28.0595 11.2168C23.8801 11.2168 20.4971 14.5991 20.4971 18.7653C20.4971 22.9314 23.8801 26.3137 28.0595 26.3137ZM28.0595 28.3137C33.3406 28.3137 37.6219 24.0387 37.6219 18.7653C37.6219 13.4918 33.3406 9.2168 28.0595 9.2168C22.7783 9.2168 18.4971 13.4918 18.4971 18.7653C18.4971 24.0387 22.7783 28.3137 28.0595 28.3137Z"
    fill="#D2D2D2" />
</svg>
